<svg xmlns="http://www.w3.org/2000/svg" version="1.1" xmlns:xlink="http://www.w3.org/1999/xlink" width="512" height="512" x="0" y="0" viewBox="0 0 32 32" style="enable-background:new 0 0 512 512" xml:space="preserve" class=""><g><path d="M13.11 2.02H2.88C1.84 2.02 1 2.86 1 3.89v10.24C1 15.16 1.84 16 2.88 16h10.23c1.03 0 1.87-.84 1.87-1.87V3.89c0-1.03-.84-1.87-1.87-1.87zM29.12 4.14H18.89c-1.03 0-1.87.84-1.87 1.88V12c0 1.04.84 1.88 1.87 1.88h10.23c1.04 0 1.88-.84 1.88-1.88V6.02c0-1.04-.84-1.88-1.88-1.88zM29.12 16H18.89c-1.03 0-1.87.84-1.87 1.87v10.24c0 1.03.84 1.87 1.87 1.87h10.23c1.04 0 1.88-.84 1.88-1.87V17.87c0-1.03-.84-1.87-1.88-1.87zM13.11 18.12H2.88C1.84 18.12 1 18.96 1 20v5.98c0 1.04.84 1.88 1.88 1.88h10.23c1.03 0 1.87-.84 1.87-1.88V20c0-1.04-.84-1.88-1.87-1.88z" fill="#ffffff" opacity="1" data-original="#000000" class=""></path></g></svg>