<svg width="89" height="89" viewBox="0 0 89 89" fill="none" xmlns="http://www.w3.org/2000/svg">
<rect width="89" height="89" rx="12" fill="#B7ECEA"/>
<path d="M69.1238 22.7783C67.8396 20.7977 66.0842 19.2116 64.0352 18.1805C61.9861 17.1494 59.7163 16.71 57.4554 16.9068C52.1376 17.546 50.7518 20.1453 46 20.6414C41.2483 20.1455 39.8623 17.546 34.5446 16.9068C32.2837 16.7101 30.0138 17.1495 27.9648 18.1805C25.9158 19.2116 24.1603 20.7977 22.8761 22.7783C19.826 27.7127 20.4954 35.0832 24.8809 40.7227C25.8383 41.9147 26.3993 43.4071 26.4773 44.9699C26.7403 52.1404 28.028 72.3126 34.2066 73.6784C38.9726 74.732 36.4527 50.6059 46 50.918C55.5473 50.6056 53.0273 74.7318 57.7932 73.6784C63.972 72.3126 65.2597 52.1404 65.5226 44.9699C65.6006 43.4071 66.1616 41.9147 67.119 40.7227C71.5045 35.0832 72.1741 27.7127 69.1238 22.7783Z" fill="white"/>
<path d="M69.1239 22.7783C67.7383 19.5035 55.3267 13.7744 57.4554 16.9067C60.8399 21.8867 62.1085 31.2344 61.0569 41.4143C60.153 50.1632 55.0003 69.3846 55.0003 69.3846C54.5976 71.9993 56.0732 74.3132 57.0243 74.1534C59.6518 73.7119 65.8017 65.2351 65.5224 44.9699C65.5637 43.3988 66.1293 41.894 67.1188 40.7227C69.0242 38.2403 70.2243 35.2356 70.5793 32.0586C70.9343 28.8816 70.4296 25.6631 69.1239 22.7783Z" fill="#D0CFCE"/>
<path d="M69.1238 22.7783C67.8396 20.7977 66.0842 19.2116 64.0352 18.1805C61.9861 17.1494 59.7163 16.71 57.4554 16.9068C52.1376 17.546 50.7518 20.1453 46 20.6414C41.2483 20.1455 39.8623 17.546 34.5446 16.9068C32.2837 16.7101 30.0138 17.1495 27.9648 18.1805C25.9158 19.2116 24.1603 20.7977 22.8761 22.7783C19.826 27.7127 20.4954 35.0832 24.8809 40.7227C25.8383 41.9147 26.3993 43.4071 26.4773 44.9699C26.7403 52.1404 28.028 72.3126 34.2066 73.6784C38.9726 74.732 36.4527 50.6059 46 50.918C55.5473 50.6056 53.0273 74.7318 57.7932 73.6784C63.972 72.3126 65.2597 52.1404 65.5226 44.9699C65.6006 43.4071 66.1616 41.9147 67.119 40.7227C71.5045 35.0832 72.1741 27.7127 69.1238 22.7783V22.7783Z" stroke="#0F2650" stroke-width="4" stroke-miterlimit="10"/>
</svg>
