<svg width="89" height="89" viewBox="0 0 89 89" fill="none" xmlns="http://www.w3.org/2000/svg">
<rect width="89" height="89" rx="12" fill="#B7ECEA"/>
<path d="M45.0063 45.7061V45.706L44.9924 45.7061C43.5178 45.7117 42.3986 46.507 41.6216 47.4015C40.8587 48.2798 40.268 49.4219 39.7873 50.598C38.8227 52.958 38.0795 56.0277 37.4183 58.9144C37.3177 59.3536 37.219 59.7885 37.1216 60.2175C36.5592 62.6955 36.0415 64.9765 35.4637 66.7407C35.1226 67.7822 34.8082 68.4872 34.5373 68.8968C34.5269 68.9125 34.517 68.9272 34.5074 68.9411C34.299 68.8649 34.0139 68.6972 33.6472 68.3419C33.0534 67.7668 32.4036 66.8452 31.7338 65.5587C30.3985 62.9939 29.1903 59.3856 28.1737 55.3844C26.1406 47.3817 25 38.324 25 34.0893C25 29.9747 26.0898 26.3782 27.8674 23.8684C29.6216 21.3916 32.0053 20 34.8049 20C36.0281 20 37.3417 20.5174 39.1315 21.2651C39.1829 21.2866 39.2349 21.3083 39.2872 21.3302C40.8734 21.9938 42.8944 22.8393 45 22.8393C47.1056 22.8393 49.1266 21.9938 50.7128 21.3302C50.7651 21.3083 50.8171 21.2866 50.8685 21.2651C52.6583 20.5174 53.9719 20 55.1951 20C57.9947 20 60.3784 21.3916 62.1326 23.8684C63.9102 26.3782 65 29.9747 65 34.0893C65 38.324 63.8594 47.3817 61.8263 55.3844C60.8097 59.3856 59.6015 62.9939 58.2662 65.5587C57.5964 66.8452 56.9466 67.7668 56.3528 68.3419C56.006 68.6779 55.7321 68.8462 55.5272 68.9279C55.2834 68.5259 55.0049 67.8352 54.7079 66.8078C54.2505 65.2258 53.8553 63.2481 53.4206 61.0728C53.2833 60.3853 53.142 59.6781 52.9935 58.9574C52.3967 56.0608 51.6854 52.9595 50.6503 50.5619C50.132 49.3615 49.4757 48.1985 48.6025 47.3106C47.6951 46.388 46.493 45.7108 45.0063 45.7061ZM34.3478 69.1367C34.3477 69.1359 34.3542 69.1294 34.3673 69.1196C34.3544 69.1326 34.3478 69.1376 34.3478 69.1367ZM55.6978 69.164C55.6977 69.1648 55.6915 69.1596 55.6795 69.146C55.6918 69.1564 55.6978 69.1632 55.6978 69.164Z" fill="white" stroke="#0F2650" stroke-width="4"/>
<path d="M38.0909 27C34.1747 27 31 30.069 31 33.8548" stroke="#D0CFCE" stroke-width="4.99647" stroke-linecap="round"/>
<path d="M45 15.2258V7M66.5603 23.859L72.5772 18.0425M75.4909 44.7014H84M66.5603 65.5439L72.5772 71.3604M45 74.1771V82.4029M23.4397 65.5439L17.4228 71.3604M14.5091 44.7014H6M23.4397 23.859L17.4228 18.0425" stroke="#0F2650" stroke-width="2" stroke-linecap="round" stroke-linejoin="round"/>
</svg>
