<svg xmlns="http://www.w3.org/2000/svg" version="1.1" xmlns:xlink="http://www.w3.org/1999/xlink" width="512" height="512" x="0" y="0" viewBox="0 0 100 100" style="enable-background:new 0 0 512 512" xml:space="preserve" class=""><g><path fill="#dedede" d="M57.193 15.502c-7.021-4.054-15.985-1.653-20.039 5.37L11.992 64.455c-6.494 11.247 3.912 24.878 16.501 21.504a14.573 14.573 0 0 0 8.907-6.835l25.162-43.583c4.045-7.005 1.636-15.994-5.369-20.039z" opacity="1" data-original="#fabc04" class=""></path><path fill="#7f7f7f" d="M88.038 64.455 62.875 20.872a14.576 14.576 0 0 0-8.907-6.835c-12.593-3.375-22.991 10.262-16.501 21.504L62.63 79.124c4.053 7.019 13.015 9.425 20.039 5.37 7.004-4.045 9.413-13.034 5.369-20.039z" opacity="1" data-original="#3c8bd9" class=""></path><path fill="#b2b2b2" d="M38.865 67.993c-2.098-7.831-10.134-12.472-17.966-10.373-12.593 3.374-14.78 20.383-3.538 26.874 11.216 6.475 24.897-3.84 21.504-16.501z" opacity="1" data-original="#34a852" class=""></path></g></svg>