<?xml version="1.0" encoding="UTF-8" standalone="no"?><svg xmlns="http://www.w3.org/2000/svg" xmlns:xlink="http://www.w3.org/1999/xlink" fill="#66b32d" height="383.9" preserveAspectRatio="xMidYMid meet" version="1" viewBox="-4.0 -0.2 510.8 383.9" width="510.8" zoomAndPan="magnify"><g id="change1_1"><path d="M75.6,143.6c0.2-2.1-0.9-3.4-1.7-4.8C65,122.7,64,106,69.6,88.7c2.9-9.1,7-17.6,12.5-25.4c19.9-27.8,46.2-46.8,79.3-55.8 c24.6-6.6,48.2-3.3,70.4,9.3c14,7.9,24.1,19,30.3,33.7c1,2.4,1.5,5.1,3.4,7c1.3-0.1,1.9-1.1,2.6-1.9c16.7-21.7,38.3-36.3,64.1-44.8 c21.7-7.2,44-11,66.9-10.8c19,0.2,36.9,4.8,53.5,14.1c23.2,12.9,39,32.2,48.1,56.9c5.9,16,6.1,32.3,0.6,48.5 c-4.9,14.5-12.1,27.7-21.8,39.5c-6.9,8.4-15,15.6-24.6,20.9c-6.6,3.7-13.4,7.1-20.1,10.5c-1.9,1-4,1.8-6.1,2.2 c-3.8,0.8-7.9-1.3-9.6-4.5c-1.7-3.3-1.2-7.7,1.6-10.5c1.5-1.5,3.3-2.7,5.2-3.8c4.2-2.4,8.6-4.6,12.9-6.8 c11.2-5.9,20.4-14.1,27.7-24.4c6-8.4,10.8-17.4,14.5-27.1c4.9-13,4.9-25.9-0.1-38.8c-10.7-27.5-30.3-45.5-58.5-54.1 c-6.7-2-13.7-3.1-20.7-3.5c-22.6-1.1-44.8,1.8-66.4,8.4c-16,4.9-30.1,13.1-42.5,24.4c-9.2,8.4-15.9,18.3-20,30.1 c-0.7,2-1.2,4.2-2.3,6.1c-3.6,6.7-12.5,7-16.6,0.5c-1.3-2-1.9-4.4-2.6-6.8c-1.6-5.4-3-11-4.8-16.3c-1.4-4.1-3.1-8.1-5-12 c-3.9-8-9.9-14.1-17.4-18.8c-20.8-12.8-43-15.4-66.2-8.1c-23.5,7.4-43.1,21-59,39.8c-8.3,9.9-14.2,21-17,33.7 c-1.9,8.7-1.1,17.1,2.2,25.4c3.8,9.3,10.2,15.8,19.3,19.8c1.7,0.8,3.6,1.3,5.2,2.2c3.3,1.9,5.1,5.5,4.5,8.8 c-0.7,3.7-3.8,6.9-7.8,7.1c-2.4,0.2-4.8-0.3-7.2-0.6c-10-1.1-19.9-1.6-29.8,0.6c-19.5,4.4-34.4,15.2-44.7,32.2 c-7.8,12.8-9.6,26.9-6.8,41.5c3,15.3,12.1,26.3,25.8,33.5c8.2,4.4,17.1,6.6,26.2,8.3c13.2,2.5,26.4,1.6,39.5-0.6 c9.9-1.7,19.7-3.5,29.7-3.5c2.7,0,4.4-1.1,5.9-3.4c17.5-26.8,41.1-47.2,69.1-62.4c30.6-16.7,63.3-27.7,97.7-33.4 c10.9-1.8,22-2.5,33.1-2.5c3,0,5.9,0.3,8.9,0.5c1.7,0.1,3.1,0.9,4.4,1.9c2,1.7,1.6,5.3-0.9,5.9c-2.9,0.8-5.8,1.1-8.8,1.5 c-15.6,1.9-31,4.4-46.2,8.5c-26.9,7.3-52.9,17.3-77.3,31c-27.5,15.5-50,36.7-69.1,61.6c-3,3.9-6.3,6.5-11.3,6.7 c-0.3,0-0.5,0.1-0.8,0.1c-15.4,0.5-30.5,4-45.8,5.4c-18.9,1.8-37.3-0.9-54.8-8.1C11.4,275.5-4,246.8,0.9,212.7 C5.4,181.3,31.5,153.8,64,146C67.9,145.1,71.8,144.4,75.6,143.6z M168.1,347.7c0.8-14.7-0.7-29.2-4.4-43.4c-0.7-2.9-1.9-5.6-3.2-8.3 c-1.2-2.5-3.7-3.4-6.1-2.8c-2.4,0.6-4,2.5-3.9,5.5c0.1,3.2,0.6,6.5,1.1,9.6c3.2,17.4,3.6,34.9,2,52.5c-0.4,4-0.6,8.1-0.8,12.1 c-0.1,1.6,0,3.3,0.4,4.8c1.1,4,5.3,6,9,4.2c1.4-0.7,2.8-1.7,4-2.8c9.7-8.9,21-15.3,32.6-21c35-17.2,71.5-30.7,109.3-40.4 c24.1-6.2,48.7-9.8,73.5-11.9c26.2-2.2,52.4-2.5,78.4,2.1c2.4,0.4,4.7,1.1,7.2,0.6c4.3-0.8,7-4.8,5.9-9c-0.4-1.5-1.2-3-2-4.4 c-1.7-3.4-3.6-6.7-5.4-10c-10.6-20.4-21.1-40.8-31.8-61.1c-4.3-8.1-9-16-13.6-24c-1.3-2.3-2.8-4.6-5-6.3c-2.6-2-6-2.2-8.3-0.4 c-2.4,1.8-3.2,4.3-2.5,7.2c0.3,1.3,0.8,2.6,1.4,3.8c0.9,1.7,1.9,3.3,2.9,4.9c14.9,22.9,27.7,47,40.1,71.4c0.9,1.7,1.7,3.4,2.5,5.1 c0.3,0.7,0.7,1.5,1,2.2c0.6,1.6-0.2,2.7-1.9,2.5c-6.2-0.5-12.4-1.4-18.6-1.7c-36.1-1.6-71.8,1.9-107.2,8.9 c-30.9,6.1-60.5,16.1-89.6,27.9c-22.3,9-44,19.3-63.8,33.3c-0.9,0.6-1.7,1.4-4.1,1C167.5,355.7,167.9,351.7,168.1,347.7z"/></g></svg>