<?xml version="1.0" encoding="UTF-8" standalone="no"?><svg xmlns="http://www.w3.org/2000/svg" xmlns:xlink="http://www.w3.org/1999/xlink" fill="#65b32e" height="44" preserveAspectRatio="xMidYMid meet" version="1" viewBox="2.0 2.0 44.0 44.0" width="44" zoomAndPan="magnify"><g id="change1_1"><path d="M24,46a.9967.9967,0,0,1-.707-.293l-4.03-4.03-5.5044,1.4751a.9987.9987,0,0,1-1.2246-.707l-1.4751-5.5044L5.5547,35.4658a1,1,0,0,1-.707-1.2246l1.4751-5.5044-4.03-4.03a.9994.9994,0,0,1,0-1.414l4.03-4.03L4.8477,13.7588a1,1,0,0,1,.707-1.2246l5.5044-1.4751,1.4751-5.5044a.9985.9985,0,0,1,1.2246-.707l5.5044,1.4751,4.03-4.03a.9994.9994,0,0,1,1.414,0l4.03,4.03,5.5044-1.4751a.9987.9987,0,0,1,1.2246.707l1.4751,5.5044,5.5044,1.4751a1,1,0,0,1,.707,1.2246l-1.4751,5.5044,4.03,4.03a.9994.9994,0,0,1,0,1.414l-4.03,4.03,1.4751,5.5044a1,1,0,0,1-.707,1.2246l-5.5044,1.4751-1.4751,5.5044a.9991.9991,0,0,1-1.2246.707l-5.5044-1.4751-4.03,4.03A.9967.9967,0,0,1,24,46Zm-4.438-6.438a1,1,0,0,1,.707.293L24,43.5859l3.731-3.7309a.999.999,0,0,1,.9658-.2588l5.0962,1.3657,1.3657-5.0962a.9988.9988,0,0,1,.707-.707l5.0962-1.3657-1.3657-5.0962a.9981.9981,0,0,1,.2588-.9658L43.5859,24,39.855,20.269a.9981.9981,0,0,1-.2588-.9658l1.3657-5.0962-5.0962-1.3657a.9988.9988,0,0,1-.707-.707L33.793,7.0381,28.6968,8.4038a.9982.9982,0,0,1-.9658-.2588L24,4.4141,20.269,8.145a.9985.9985,0,0,1-.9658.2588L14.207,7.0381l-1.3657,5.0962a.9988.9988,0,0,1-.707.707L7.0381,14.207l1.3657,5.0962a.9981.9981,0,0,1-.2588.9658L4.4141,24,8.145,27.731a.9981.9981,0,0,1,.2588.9658L7.0381,33.793l5.0962,1.3657a.9988.9988,0,0,1,.707.707l1.3657,5.0962,5.0962-1.3657A.9954.9954,0,0,1,19.562,39.562Z" fill="inherit"/><path d="M19,23a4,4,0,1,1,4-4A4.0045,4.0045,0,0,1,19,23Zm0-6a2,2,0,1,0,2,2A2.002,2.002,0,0,0,19,17Z" fill="inherit"/><path d="M29,33a4,4,0,1,1,4-4A4.0045,4.0045,0,0,1,29,33Zm0-6a2,2,0,1,0,2,2A2.002,2.002,0,0,0,29,27Z" fill="inherit"/><path d="M17.999,33A1,1,0,0,1,17.2,31.4l12-16a1,1,0,0,1,1.6,1.2l-12,16A.9986.9986,0,0,1,17.999,33Z" fill="inherit"/></g></svg>