<?xml version="1.0" encoding="UTF-8" standalone="no"?><svg xmlns="http://www.w3.org/2000/svg" xmlns:xlink="http://www.w3.org/1999/xlink" fill="#65b32e" height="126" preserveAspectRatio="xMidYMid meet" version="1" viewBox="1.0 1.0 126.0 126.0" width="126" zoomAndPan="magnify"><g id="change1_1"><path d="M 90 1 C 75.1 1 63 13.1 63 28 L 63 56 C 63 57.7 64.3 59 66 59 C 67.7 59 69 57.7 69 56 L 69 28 C 69 16.4 78.4 7 90 7 C 99.1 7 106.80078 12.800391 109.80078 20.900391 L 94.300781 32.5 C 93.100781 33.4 92.600391 35.1 93.400391 36.5 C 94.000391 37.5 95 38 96 38 C 96.6 38 97.300781 37.800391 97.800781 37.400391 L 110.59961 27.800781 L 111 28 L 111 40 L 94.300781 52.5 C 93.100781 53.4 92.600391 55.1 93.400391 56.5 C 94.000391 57.5 95 58 96 58 C 96.6 58 97.300781 57.800391 97.800781 57.400391 L 111 47.5 L 111 56 C 111 57.7 112.3 59 114 59 C 115.7 59 117 57.7 117 56 L 117 28 C 117 13.2 104.99922 1.1 90.199219 1 L 90.099609 1 L 90 1 z M 4 21 C 2.3 21 1 22.3 1 24 L 1 32 C 1 43 10 52 21 52 L 23.699219 52 C 21.699219 54.7 19.899609 57.7 18.599609 61 C 17.999609 62.5 18.700781 64.300391 20.300781 64.900391 C 20.700781 65.000391 21.000391 65.099609 21.400391 65.099609 C 22.600391 65.099609 23.699219 64.399219 24.199219 63.199219 C 29.099219 50.899219 40.8 43 54 43 C 55.7 43 57 41.7 57 40 C 57 38.3 55.7 37 54 37 C 45.9 37 38.3 39.5 32 44 L 32 41 C 32 30 23 21 12 21 L 4 21 z M 7 27 L 12 27 C 19.7 27 26 33.3 26 41 L 26 46 L 21 46 C 13.3 46 7 39.7 7 32 L 7 27 z M 3.8828125 60.990234 C 3.4779297 61.008984 3.0742188 61.113281 2.6992188 61.300781 C 1.5992188 61.800781 1 62.9 1 64 L 1 94 C 1 95.7 2.3 97 4 97 C 5.7 97 7 95.7 7 94 L 7 70 L 22.199219 81.400391 C 23.299219 82.200391 24.700781 82.200391 25.800781 81.400391 L 44 67.800781 L 62.199219 81.400391 C 63.299219 82.200391 64.700781 82.200391 65.800781 81.400391 L 84 67.800781 L 102.19922 81.400391 C 103.29922 82.200391 104.70078 82.200391 105.80078 81.400391 L 121 70 L 121 124 C 121 125.7 122.3 127 124 127 C 125.7 127 127 125.7 127 124 L 127 64 C 127 62.9 126.40078 61.800781 125.30078 61.300781 C 124.30078 60.800781 123.09922 60.899609 122.19922 61.599609 L 104 75.199219 L 85.800781 61.599609 C 84.700781 60.799609 83.299219 60.799609 82.199219 61.599609 L 64 75.199219 L 45.800781 61.599609 C 44.700781 60.799609 43.299219 60.799609 42.199219 61.599609 L 24 75.199219 L 5.8007812 61.599609 C 5.2382812 61.162109 4.5576172 60.958984 3.8828125 60.990234 z M 4 111 C 2.3 111 1 112.3 1 114 L 1 124 C 1 125.7 2.3 127 4 127 C 5.7 127 7 125.7 7 124 L 7 114 C 7 112.3 5.7 111 4 111 z" fill="inherit"/></g></svg>