<?xml version="1.0" encoding="UTF-8" standalone="no"?><svg xmlns="http://www.w3.org/2000/svg" xmlns:xlink="http://www.w3.org/1999/xlink" fill="#65b32e" height="254.1" preserveAspectRatio="xMidYMid meet" version="1" viewBox="105.4 116.8 300.4 254.1" width="300.4" zoomAndPan="magnify"><g><g id="change1_6"><path d="M376.9,356.8H134.3V208.3h242.5V356.8z M141.3,349.8h228.5V215.3H141.3V349.8z" fill="inherit"/></g><g id="change1_1"><path d="M218.6,356.8H156v-92.2h62.6V356.8z M163,349.8h48.6v-78.2H163V349.8z" fill="inherit"/></g><g id="change1_3"><path d="M197.3 307.2H207.9V314.2H197.3z" fill="inherit"/></g><g id="change1_8"><path d="M356.1,341.3H234.3V231.2h121.8V341.3z M241.3,334.3h107.8v-96.1H241.3V334.3z" fill="inherit"/></g><g id="change1_4"><path d="M262.8 272H325V279H262.8z" fill="inherit" transform="rotate(-45.001 293.946 275.514)"/></g><g id="change1_9"><path d="M265.7 289.4H346.79999999999995V296.4H265.7z" fill="inherit" transform="rotate(-45.001 306.266 292.938)"/></g><g id="change1_5"><path d="M405.8,215.3H105.4l30-78.8h240.4L405.8,215.3z M115.5,208.3h280.1L371,143.5H140.2L115.5,208.3z" fill="inherit"/></g><g id="change1_7"><path d="M376.9,143.5H134.3v-26.7h242.5V143.5z M141.3,136.5h228.5v-12.7H141.3V136.5z" fill="inherit"/></g><g id="change1_2"><path d="M396.7,370.9H114.5v-21.1h282.3V370.9z M121.5,363.9h268.3v-7.1H121.5V363.9z" fill="inherit"/></g></g></svg>