<?xml version="1.0" encoding="UTF-8" standalone="no"?><svg xmlns="http://www.w3.org/2000/svg" xmlns:xlink="http://www.w3.org/1999/xlink" fill="#65b32e" height="284.7" preserveAspectRatio="xMidYMid meet" version="1" viewBox="0.0 0.0 333.1 284.7" width="333.1" zoomAndPan="magnify"><defs><clipPath id="a"><path d="M 211 236 L 259 236 L 259 284.738281 L 211 284.738281 Z M 211 236"/></clipPath><clipPath id="b"><path d="M 120 236 L 169 236 L 169 284.738281 L 120 284.738281 Z M 120 236"/></clipPath><clipPath id="c"><path d="M 0 0 L 333.050781 0 L 333.050781 229 L 0 229 Z M 0 0"/></clipPath></defs><g><g clip-path="url(#a)" id="change1_2"><path d="M 235.03125 273.105469 C 228.261719 273.105469 222.753906 267.597656 222.753906 260.828125 C 222.753906 254.058594 228.261719 248.550781 235.03125 248.550781 C 241.804688 248.550781 247.3125 254.058594 247.3125 260.828125 C 247.3125 267.597656 241.804688 273.105469 235.03125 273.105469 Z M 235.03125 236.914062 C 221.847656 236.914062 211.121094 247.640625 211.121094 260.828125 C 211.121094 274.011719 221.847656 284.738281 235.03125 284.738281 C 248.21875 284.738281 258.945312 274.011719 258.945312 260.828125 C 258.945312 247.640625 248.21875 236.914062 235.03125 236.914062" fill="#65b32e"/></g><g clip-path="url(#b)" id="change1_1"><path d="M 144.855469 273.105469 C 138.085938 273.105469 132.578125 267.597656 132.578125 260.828125 C 132.578125 254.058594 138.085938 248.550781 144.855469 248.550781 C 151.625 248.550781 157.132812 254.058594 157.132812 260.828125 C 157.132812 267.597656 151.625 273.105469 144.855469 273.105469 Z M 144.855469 236.914062 C 131.671875 236.914062 120.941406 247.640625 120.941406 260.828125 C 120.941406 274.011719 131.671875 284.738281 144.855469 284.738281 C 158.039062 284.738281 168.765625 274.011719 168.765625 260.828125 C 168.765625 247.640625 158.039062 236.914062 144.855469 236.914062" fill="#65b32e"/></g><g clip-path="url(#c)" id="change2_1"><path d="M 282.699219 159.269531 L 105.703125 173.519531 L 71.648438 51.242188 L 317.035156 51.242188 Z M 326.285156 37.710938 L 65.515625 37.710938 L 55.8125 4.851562 C 54.964844 1.976562 52.324219 0.00390625 49.324219 0.00390625 L 6.765625 0.00390625 C 3.027344 0.00390625 0 3.03125 0 6.765625 C 0 10.503906 3.027344 13.53125 6.765625 13.53125 L 44.269531 13.53125 L 104.683594 218.15625 C 105.507812 220.949219 108.03125 222.902344 110.941406 223 L 262.578125 228.171875 C 262.65625 228.171875 262.734375 228.175781 262.8125 228.175781 C 266.441406 228.175781 269.445312 225.296875 269.570312 221.640625 C 269.695312 217.90625 266.773438 214.773438 263.039062 214.648438 L 116.277344 209.644531 L 109.53125 186.785156 L 288.3125 172.394531 C 291.054688 172.175781 293.386719 170.316406 294.21875 167.699219 L 332.734375 46.527344 C 333.390625 44.46875 333.019531 42.226562 331.746094 40.484375 C 330.472656 38.742188 328.445312 37.710938 326.285156 37.710938"/></g></g></svg>