<svg width="22" height="29" viewBox="0 0 22 29" fill="none" xmlns="http://www.w3.org/2000/svg">
<path d="M21 12.0455C21 20.6364 11 28 11 28C11 28 1 20.6364 1 12.0455C1 9.11602 2.05357 6.30656 3.92893 4.23514C5.8043 2.16371 8.34784 1 11 1C13.6522 1 16.1957 2.16371 18.0711 4.23514C19.9464 6.30656 21 9.11602 21 12.0455Z" fill="#01CFC9" stroke="#0F2650" stroke-width="2" stroke-linecap="round" stroke-linejoin="round"/>
<path d="M11 16C12.6569 16 14 14.433 14 12.5C14 10.567 12.6569 9 11 9C9.34315 9 8 10.567 8 12.5C8 14.433 9.34315 16 11 16Z" fill="#0F2650" stroke="#0F2650" stroke-width="2" stroke-linecap="round" stroke-linejoin="round"/>
</svg>
