<svg width="89" height="89" viewBox="0 0 89 89" fill="none" xmlns="http://www.w3.org/2000/svg">
<rect width="89" height="89" rx="12" fill="#B7ECEA"/>
<path d="M84 51.7662V79H5V51.7662C5.82739 51.5389 7.04798 51.2706 8.58966 51.1194C11.7163 50.8128 16.1702 50.9867 21.3695 52.9718C22.8888 53.5519 24.523 54.4307 26.3043 55.4796C27.0308 55.9074 27.8351 56.3966 28.6634 56.9004C29.7301 57.5493 30.8367 58.2223 31.8685 58.8198C35.6671 61.0193 39.9975 63.1491 44.5 63.1491C49.0026 63.1491 53.3331 61.0193 57.1318 58.8197C58.1637 58.2222 59.2704 57.5491 60.3371 56.9003C61.1654 56.3964 61.9697 55.9072 62.6962 55.4794C64.4776 54.4305 66.1117 53.5517 67.6311 52.9716C72.8302 50.9865 77.2839 50.8127 80.4105 51.1193C81.9521 51.2705 83.1726 51.5388 84 51.7662ZM3.78024 52.1628C3.77953 52.1631 3.78072 52.1626 3.78379 52.1613L3.78272 52.1617L3.78024 52.1628Z" stroke="#0F2650" stroke-width="4"/>
<path d="M64.3865 23.2043C63.2821 21.4623 61.7724 20.0673 60.0102 19.1605C58.2481 18.2537 56.296 17.8672 54.3516 18.0403C49.7784 18.6025 48.5865 20.8886 44.5 21.3249C40.4135 20.8887 39.2216 18.6025 34.6484 18.0403C32.704 17.8673 30.7519 18.2537 28.9897 19.1606C27.2276 20.0674 25.7179 21.4623 24.6135 23.2043C21.9903 27.5441 22.5661 34.0263 26.3376 38.9862C27.161 40.0346 27.6434 41.3471 27.7105 42.7216C27.9367 49.028 29.044 66.7692 34.3577 67.9705C38.4565 68.8971 36.2893 47.6784 44.5 47.9529C52.7106 47.6782 50.5435 68.8969 54.6422 67.9705C59.9559 66.7692 61.0634 49.028 61.2895 42.7216C61.3565 41.3471 61.8389 40.0346 62.6624 38.9862C66.4339 34.0263 67.0097 27.5441 64.3865 23.2043Z" fill="white"/>
<path d="M63.7081 23.0602C62.565 20.1324 52.3254 15.0102 54.0816 17.8107C56.8738 22.2631 57.9204 30.6206 57.0528 39.7221C56.3072 47.5441 52.0562 64.7294 52.0562 64.7294C51.7239 67.0671 52.9412 69.1359 53.726 68.993C55.8936 68.5983 60.9673 61.0195 60.7369 42.901C60.771 41.4963 61.2376 40.1509 62.0539 39.1037C63.6259 36.8843 64.616 34.1979 64.9089 31.3574C65.2017 28.517 64.7853 25.6395 63.7081 23.0602Z" fill="#D0CFCE"/>
<path d="M64.3865 23.2043C63.2821 21.4623 61.7724 20.0673 60.0102 19.1605C58.2481 18.2537 56.296 17.8672 54.3516 18.0403C49.7784 18.6025 48.5865 20.8886 44.5 21.3249C40.4135 20.8887 39.2216 18.6025 34.6484 18.0403C32.704 17.8673 30.7519 18.2537 28.9897 19.1606C27.2276 20.0674 25.7179 21.4623 24.6135 23.2043C21.9903 27.5441 22.5661 34.0263 26.3376 38.9862C27.161 40.0346 27.6434 41.3471 27.7105 42.7216C27.9367 49.028 29.044 66.7692 34.3577 67.9705C38.4565 68.8971 36.2893 47.6784 44.5 47.9529C52.7106 47.6782 50.5435 68.8969 54.6422 67.9705C59.9559 66.7692 61.0634 49.028 61.2895 42.7216C61.3565 41.3471 61.8389 40.0346 62.6624 38.9862C66.4339 34.0263 67.0097 27.5441 64.3865 23.2043V23.2043Z" stroke="#0F2650" stroke-width="4" stroke-miterlimit="10"/>
<path d="M45.2355 24.5204L46.4693 22.7723L47.6758 21.0627" stroke="#0F2650" stroke-width="0.55767" stroke-linecap="round"/>
<path d="M43.2255 24.0481C41.6694 24.3203 40.6302 25.7927 40.9045 27.3368C41.1788 28.8809 42.6627 29.9121 44.2188 29.6399C45.775 29.3677 46.8141 27.8953 46.5399 26.3512C46.2656 24.8071 44.7817 23.776 43.2255 24.0481Z" fill="#D0CFCE"/>
<path fill-rule="evenodd" clip-rule="evenodd" d="M49.6694 21.1335L46.9994 19.2781L58.4879 2.99997L61.1579 4.85533L49.6694 21.1335Z" fill="#0F2650"/>
<path d="M45.8229 20.9361L48.5012 22.7972L49.6735 21.1362L46.9951 19.275L45.8229 20.9361Z" fill="#01CFC9"/>
</svg>
