<svg width="89" height="89" viewBox="0 0 89 89" fill="none" xmlns="http://www.w3.org/2000/svg">
<rect width="89" height="89" rx="12" fill="#B7ECEA"/>
<path d="M17.2115 15.3002H72.7948V74.9478H17.2115V15.3002Z" fill="white"/>
<path d="M17.2115 15.3002H72.7948V25.5838H17.2115V15.3002Z" fill="#FFEB97"/>
<path d="M24.4874 20.4385C24.4874 20.6929 24.4171 20.9416 24.2853 21.1532C24.1536 21.3647 23.9664 21.5296 23.7474 21.6269C23.5284 21.7243 23.2874 21.7498 23.0548 21.7001C22.8223 21.6505 22.6087 21.528 22.4411 21.3481C22.2735 21.1682 22.1593 20.939 22.1131 20.6895C22.0668 20.44 22.0905 20.1813 22.1813 19.9463C22.272 19.7112 22.4256 19.5103 22.6227 19.369C22.8199 19.2277 23.0516 19.1522 23.2887 19.1522C23.6066 19.1522 23.9115 19.2877 24.1363 19.529C24.3611 19.7702 24.4874 20.0974 24.4874 20.4385Z" fill="#0F2650"/>
<path d="M29.282 20.4385C29.282 20.6929 29.2117 20.9416 29.08 21.1532C28.9483 21.3647 28.7611 21.5296 28.5421 21.6269C28.3231 21.7243 28.082 21.7498 27.8495 21.7001C27.617 21.6505 27.4034 21.528 27.2358 21.3481C27.0682 21.1682 26.954 20.939 26.9077 20.6895C26.8615 20.44 26.8852 20.1813 26.9759 19.9463C27.0667 19.7112 27.2203 19.5103 27.4174 19.369C27.6145 19.2277 27.8463 19.1522 28.0834 19.1522C28.4013 19.1522 28.7062 19.2877 28.931 19.529C29.1557 19.7702 29.282 20.0974 29.282 20.4385Z" fill="#0F2650"/>
<path d="M34.0444 20.4385C34.0444 20.6929 33.9741 20.9416 33.8424 21.1532C33.7107 21.3647 33.5235 21.5296 33.3045 21.6269C33.0854 21.7243 32.8444 21.7498 32.6119 21.7001C32.3794 21.6505 32.1658 21.528 31.9982 21.3481C31.8305 21.1682 31.7164 20.939 31.6701 20.6895C31.6239 20.44 31.6476 20.1813 31.7383 19.9463C31.8291 19.7112 31.9827 19.5103 32.1798 19.369C32.3769 19.2277 32.6087 19.1522 32.8458 19.1522C33.1637 19.1522 33.4686 19.2877 33.6933 19.529C33.9181 19.7702 34.0444 20.0974 34.0444 20.4385Z" fill="#0F2650"/>
<path d="M41.9775 61.3308H57.6891V67.8177H41.9775V61.3308Z" fill="#FF8898"/>
<path d="M27.7611 68.454C29.7614 68.454 31.3829 66.7139 31.3829 64.5674C31.3829 62.4209 29.7614 60.6808 27.7611 60.6808C25.7609 60.6808 24.1393 62.4209 24.1393 64.5674C24.1393 66.7139 25.7609 68.454 27.7611 68.454Z" fill="#01CFC9"/>
<path d="M72.7949 76.241H17.2116C17.0528 76.2419 16.8954 76.2091 16.7484 76.1445C16.6015 76.08 16.4678 75.9849 16.3553 75.8647C16.2427 75.7445 16.1533 75.6016 16.0924 75.4443C16.0314 75.2869 16 75.1182 16 74.9478V15.3002C15.9992 15.1292 16.0299 14.9597 16.0905 14.8015C16.1511 14.6434 16.2403 14.4997 16.353 14.3788C16.4656 14.2579 16.5995 14.1621 16.7469 14.0971C16.8943 14.0321 17.0522 13.9991 17.2116 14H72.7949C72.9537 14 73.1109 14.0337 73.2575 14.0991C73.4042 14.1645 73.5373 14.2604 73.6493 14.3812C73.7613 14.5021 73.8499 14.6454 73.9101 14.8031C73.9703 14.9608 74.0008 15.1298 74 15.3002V74.9478C74 75.2908 73.873 75.6197 73.647 75.8622C73.421 76.1048 73.1145 76.241 72.7949 76.241ZM18.4167 73.6476H71.5833V16.5934H18.4167V73.6476Z" fill="#0F2650"/>
<path d="M71.8346 26.877H18.1653C17.8601 26.853 17.5746 26.706 17.3662 26.4655C17.1579 26.225 17.0421 25.9087 17.0421 25.5803C17.0421 25.2519 17.1579 24.9356 17.3662 24.6951C17.5746 24.4546 17.8601 24.3075 18.1653 24.2836H71.8346C72.0007 24.2706 72.1675 24.2944 72.3246 24.3537C72.4818 24.413 72.6258 24.5064 72.7478 24.628C72.8698 24.7497 72.9671 24.8971 73.0336 25.0609C73.1001 25.2248 73.1345 25.4016 73.1345 25.5803C73.1345 25.759 73.1001 25.9358 73.0336 26.0997C72.9671 26.2635 72.8698 26.4109 72.7478 26.5326C72.6258 26.6542 72.4818 26.7476 72.3246 26.8069C72.1675 26.8661 72.0007 26.89 71.8346 26.877Z" fill="#0F2650"/>
<path d="M38.9358 18.9862H69.2569V21.5796H38.9358V18.9862Z" fill="#0F2650"/>
<path d="M24.1393 33.772H58.5333V36.3653H24.1393V33.772Z" fill="#0F2650"/>
<path d="M24.1393 39.8231H58.5333V42.4165H24.1393V39.8231Z" fill="#0F2650"/>
<path d="M24.1393 45.8743H58.5333V48.4676H24.1393V45.8743Z" fill="#0F2650"/>
<path d="M24.1393 51.9255H58.5333V54.5189H24.1393V51.9255Z" fill="#0F2650"/>
<path d="M64.6555 37.6654H67.0722V54.9546H64.6555V37.6654Z" fill="#B7ECEA"/>
<path d="M65.8606 41.9877C65.541 41.9877 65.2345 41.8515 65.0085 41.609C64.7825 41.3664 64.6555 41.0375 64.6555 40.6945V35.0721C64.6778 34.7445 64.8148 34.4382 65.039 34.2146C65.2631 33.991 65.5578 33.8667 65.8639 33.8667C66.1699 33.8667 66.4646 33.991 66.6887 34.2146C66.9129 34.4382 67.0499 34.7445 67.0722 35.0721V40.6876C67.073 40.8586 67.0423 41.0281 66.9817 41.1862C66.9211 41.3444 66.8319 41.4881 66.7192 41.609C66.6066 41.7299 66.4727 41.8256 66.3253 41.8906C66.1779 41.9557 66.02 41.9887 65.8606 41.9877Z" fill="#0F2650"/>
<path d="M57.6891 69.1108H41.9776C41.8193 69.1108 41.6626 69.0774 41.5164 69.0124C41.3702 68.9474 41.2373 68.8522 41.1254 68.7321C41.0135 68.612 40.9248 68.4694 40.8642 68.3125C40.8036 68.1556 40.7725 67.9874 40.7725 67.8176V61.3307C40.7725 61.1603 40.8038 60.9916 40.8648 60.8342C40.9258 60.6769 41.0151 60.534 41.1277 60.4138C41.2403 60.2936 41.3739 60.1985 41.5209 60.1339C41.6678 60.0694 41.8252 60.0366 41.984 60.0375H57.6891C57.8485 60.0366 58.0064 60.0696 58.1538 60.1346C58.3011 60.1996 58.435 60.2953 58.5477 60.4163C58.6604 60.5372 58.7496 60.6809 58.8102 60.839C58.8708 60.9972 58.9015 61.1666 58.9007 61.3376V67.8245C58.8998 67.9944 58.8678 68.1624 58.8065 68.3189C58.7451 68.4755 58.6557 68.6175 58.5432 68.737C58.4307 68.8564 58.2973 68.9509 58.1508 69.0151C58.0042 69.0792 57.8474 69.1118 57.6891 69.1108ZM43.1891 66.5175H56.4776V62.624H43.1891V66.5175Z" fill="#0F2650"/>
<path d="M27.6 67.9422L24.8289 64.9684C24.5982 64.7236 24.4675 64.3904 24.4657 64.0422C24.4639 63.6939 24.5911 63.3592 24.8192 63.1116C25.0474 62.864 25.3579 62.7238 25.6824 62.7218C26.0069 62.7199 26.3188 62.8563 26.5496 63.1012L27.6 64.2561L30.5902 61.0265C30.821 60.7826 31.1326 60.647 31.4565 60.6496C31.7804 60.6522 32.09 60.7927 32.3174 61.0403C32.5447 61.2879 32.671 61.6223 32.6686 61.9699C32.6662 62.3175 32.5352 62.6498 32.3045 62.8937L27.6 67.9422Z" fill="#0F2650"/>
</svg>
