<svg width="89" height="89" viewBox="0 0 89 89" fill="none" xmlns="http://www.w3.org/2000/svg">
<rect width="89" height="89" rx="12" fill="#B7ECEA"/>
<path d="M64 34.2079C64 36.8714 63.668 41.2149 63.0351 46.1315H26.9649C26.332 41.2149 26 36.8714 26 34.2079C26 29.4465 27.0652 25.2713 28.8052 22.3587C30.5371 19.4596 32.7905 18 35.2683 18C36.3313 18 37.51 18.5388 39.2465 19.3988C39.3037 19.4271 39.3617 19.4559 39.4205 19.4851C40.9108 20.2248 42.9018 21.2132 45 21.2132C47.0982 21.2132 49.0892 20.2248 50.5795 19.4851C50.6383 19.4559 50.6963 19.4271 50.7535 19.3988C52.49 18.5388 53.6687 18 54.7317 18C57.2095 18 59.4629 19.4596 61.1948 22.3587C62.9348 25.2713 64 29.4465 64 34.2079Z" fill="white" stroke="#0F2650" stroke-width="4"/>
<path fill-rule="evenodd" clip-rule="evenodd" d="M36.2919 48.1312H53.7065V55.6286L50.6333 59.9128V75.9785L44.9992 80.2627L39.365 75.9785V59.9128L36.2919 55.6286V48.1312Z" fill="#0F2650"/>
<path d="M37.3172 20.2846C32.7912 20.2846 29.1221 24.1208 29.1221 28.853" stroke="#D0CFCE" stroke-width="6.70258" stroke-linecap="round"/>
<path fill-rule="evenodd" clip-rule="evenodd" d="M39.3657 68.481L50.634 71.6941V73.8362L39.3657 70.6231V68.481Z" fill="#D8D8D8"/>
<path fill-rule="evenodd" clip-rule="evenodd" d="M39.3657 64.1974L50.634 67.4106V69.5527L39.3657 66.3395V64.1974Z" fill="#D8D8D8"/>
<path fill-rule="evenodd" clip-rule="evenodd" d="M39.3657 59.9133L50.634 63.1265V65.2686L39.3657 62.0554V59.9133Z" fill="#D8D8D8"/>
</svg>
